HIERARCHY
ROOT Hip
{
	OFFSET 0 1.131 0.0052
	CHANNELS 6 Xposition Yposition Zposition Xrotation Yrotation Zrotation
	JOINT Abdomen
	{
		OFFSET 0 -0.047353 -0.05
		CHANNELS 3 Xrotation Zrotation Yrotation
		JOINT Chest
		{
			OFFSET 0 0.132153 0.007439
			CHANNELS 3 Xrotation Zrotation Yrotation
			JOINT Neck
			{
				OFFSET 0 0.3078 0.006161
				CHANNELS 3 Xrotation Zrotation Yrotation
				JOINT Head_comp
				{
					OFFSET 0 0.0884 0.013
					CHANNELS 3 Xrotation Yrotation Zrotation
					End Site
					{
						OFFSET -0 0.156 0.0624
					}
				}
			}
			JOINT Left_Collar
			{
				OFFSET 0.02282 0.250342 0.017193
				CHANNELS 2 Yrotation Zrotation
				JOINT Left_Shoulder
				{
					OFFSET 0.15421 0 0
					CHANNELS 3 Xrotation Yrotation Zrotation
					JOINT Left_Forearm
					{
						OFFSET 0.265212 0 0
						CHANNELS 2 Yrotation Xrotation
						JOINT Left_Hand
						{
							OFFSET 0.27571 0 0
							CHANNELS 2 Zrotation Yrotation
							JOINT L1ProxPhalanx
							{
								OFFSET 0.014142 0.001733 0.014142
								CHANNELS 3 Yrotation Zrotation Xrotation
								JOINT L1MidPhalanx
								{
									OFFSET 0.04 0 0
									CHANNELS 1 Zrotation
									JOINT L1DistPhalanx
									{
										OFFSET 0.035 0 0
										CHANNELS 1 Zrotation
										End Site
										{
											OFFSET 0.029 -0 -0
										}
									}
								}
							}
							JOINT L2ProxPhalanx
							{
								OFFSET 0.0821037 0.001578 0.0219996
								CHANNELS 2 Yrotation Zrotation
								JOINT L2MidPhalanx
								{
									OFFSET 0.04 0 0
									CHANNELS 1 Zrotation
									JOINT L2DistPhalanx
									{
										OFFSET 0.028 0 0
										CHANNELS 1 Zrotation
										End Site
										{
											OFFSET 0.02 -0 -0
										}
									}
								}
							}
							JOINT L3ProxPhalanx
							{
								OFFSET 0.083 0 0
								CHANNELS 2 Yrotation Zrotation
								JOINT L3MidPhalanx
								{
									OFFSET 0.053 0 0
									CHANNELS 1 Zrotation
									JOINT L3DistPhalanx
									{
										OFFSET 0.03 0 0
										CHANNELS 1 Zrotation
										End Site
										{
											OFFSET 0.023 -0 -0
										}
									}
								}
							}
							JOINT L4ProxPhalanx
							{
								OFFSET 0.077274 -0.000761 -0.0207055
								CHANNELS 2 Yrotation Zrotation
								JOINT L4MidPhalanx
								{
									OFFSET 0.05 0 0
									CHANNELS 1 Zrotation
									JOINT L4DistPhalanx
									{
										OFFSET 0.03 0 0
										CHANNELS 1 Zrotation
										End Site
										{
											OFFSET 0.023 -0 -0
										}
									}
								}
							}
							JOINT L5ProxPhalanx
							{
								OFFSET 0.0675499 -0.001644 -0.039
								CHANNELS 2 Yrotation Zrotation
								JOINT L5MidPhalanx
								{
									OFFSET 0.04 0 0
									CHANNELS 1 Zrotation
									JOINT L5DistPhalanx
									{
										OFFSET 0.021 0 0
										CHANNELS 1 Zrotation
										End Site
										{
											OFFSET 0.022 -0 -0
										}
									}
								}
							}
						}
					}
				}
			}
			JOINT Right_Collar
			{
				OFFSET -0.02282 0.250342 0.017193
				CHANNELS 2 Yrotation Zrotation
				JOINT Right_Shoulder
				{
					OFFSET -0.15421 0 0
					CHANNELS 3 Xrotation Yrotation Zrotation
					JOINT Right_Forearm
					{
						OFFSET -0.265212 0 0
						CHANNELS 2 Yrotation Xrotation
						JOINT Right_Hand
						{
							OFFSET -0.27571 3e-006 0
							CHANNELS 2 Zrotation Yrotation
							JOINT R1ProxPhalanx
							{
								OFFSET -0.014142 0.001733 0.014142
								CHANNELS 3 Yrotation Zrotation Xrotation
								JOINT R1MidPhalanx
								{
									OFFSET -0.04 0 0
									CHANNELS 1 Zrotation
									JOINT R1DistPhalanx
									{
										OFFSET -0.035 0 0
										CHANNELS 1 Zrotation
										End Site
										{
											OFFSET -0.029 -0 -0
										}
									}
								}
							}
							JOINT R2ProxPhalanx
							{
								OFFSET -0.0821037 0.001578 0.0219996
								CHANNELS 2 Yrotation Zrotation
								JOINT R2MidPhalanx
								{
									OFFSET -0.04 0 0
									CHANNELS 1 Zrotation
									JOINT R2DistPhalanx
									{
										OFFSET -0.028 0 0
										CHANNELS 1 Zrotation
										End Site
										{
											OFFSET -0.02 -0 -0
										}
									}
								}
							}
							JOINT R3ProxPhalanx
							{
								OFFSET -0.083 0 0
								CHANNELS 2 Yrotation Zrotation
								JOINT R3MidPhalanx
								{
									OFFSET -0.053 0 0
									CHANNELS 1 Zrotation
									JOINT R3DistPhalanx
									{
										OFFSET -0.03 0 0
										CHANNELS 1 Zrotation
										End Site
										{
											OFFSET -0.023 -0 -0
										}
									}
								}
							}
							JOINT R4ProxPhalanx
							{
								OFFSET -0.077274 -0.000761 -0.0207055
								CHANNELS 2 Yrotation Zrotation
								JOINT R4MidPhalanx
								{
									OFFSET -0.05 0 0
									CHANNELS 1 Zrotation
									JOINT R4DistPhalanx
									{
										OFFSET -0.03 0 0
										CHANNELS 1 Zrotation
										End Site
										{
											OFFSET -0.023 -0 -0
										}
									}
								}
							}
							JOINT R5ProxPhalanx
							{
								OFFSET -0.0675499 -0.001644 -0.039
								CHANNELS 2 Yrotation Zrotation
								JOINT R5MidPhalanx
								{
									OFFSET -0.04 0 0
									CHANNELS 1 Zrotation
									JOINT R5DistPhalanx
									{
										OFFSET -0.021 0 0
										CHANNELS 1 Zrotation
										End Site
										{
											OFFSET -0.022 -0 -0
										}
									}
								}
							}
						}
					}
				}
			}
		}
	}
	JOINT Left_Thigh
	{
		OFFSET 0.1118 -0.1612 -0.0442
		CHANNELS 3 Xrotation Zrotation Yrotation
		JOINT Left_Shin
		{
			OFFSET 0 -0.477856 0
			CHANNELS 1 Xrotation
			JOINT Left_Foot
			{
				OFFSET 0 -0.431952 0
				CHANNELS 2 Xrotation Zrotation
				JOINT Left_Toe
				{
					OFFSET 0 -0.0442 0.119
					CHANNELS 1 Xrotation
					End Site
					{
						OFFSET -0 -0 0.07
					}
				}
			}
		}
	}
	JOINT Right_Thigh
	{
		OFFSET -0.1118 -0.1612 -0.0442
		CHANNELS 3 Xrotation Zrotation Yrotation
		JOINT Right_Shin
		{
			OFFSET 0 -0.477856 0
			CHANNELS 1 Xrotation
			JOINT Right_Foot
			{
				OFFSET 0 -0.431952 0
				CHANNELS 2 Xrotation Zrotation
				JOINT Right_Toe
				{
					OFFSET 0 -0.0442 0.119
					CHANNELS 1 Xrotation
					End Site
					{
						OFFSET -0 -0 0.07
					}
				}
			}
		}
	}
}
MOTION
Frames: 13
Frame Time: 0.009975
-0.10285 -0.0600785 0.0477877 -1.52539e-012 4.87537e-008 -5.10934e-006 0 -0 0 0 -0 0 0 -0 0 -0.712635 0.294922 -1.30559e-011 1.58154 -22.2494 -17.3681 -17.1442 -33.6984 -42.9892 1.05648 37.7052 9.24817 -81.4891 -63.9086 63.7976 -3.55423 0.969559 4.21302 0.435734 2.69382 -1.55982 2.97755 1.85873 3.2053 0.152922 3.8701 2.94838 -4.97304 2.28662 10.8703 5.59528 -37.0238 32.1736 -0.300686 12.5255 11.1522 3.59362 46.3389 79.6131 0.542947 -16.6787 -4.80202 54.4966 40.8667 67.6684 17.9727 17.8787 6.00397 11.7776 17.7835 13.5565 -1.07105 13.9664 19.9369 18.065 -7.04996 18.9163 22.5389 14.8691 -9.41674 15.4615 32.9222 11.1092 0.542042 -0.563607 -0.00533186 0.0240216 -0.566038 0.563637 0 0.553448 -0.563606 -0.00544405 1.21346e-006 -0.553422 0.563637 0 
-0.102967 -0.0600794 0.048002 2.99212e-013 4.99624e-008 -5.10932e-006 0 -0 0 0 -0 0 0 -0 0 -0.712653 0.295258 -1.33738e-011 1.58154 -22.2494 -17.3681 -17.1442 -33.6984 -42.9892 1.05648 37.7052 9.24817 -81.4891 -63.9086 63.7976 -3.55423 0.969559 4.21302 0.435734 2.69382 -1.55982 2.97755 1.85873 3.2053 0.152922 3.8701 2.94838 -4.97304 2.28662 10.8703 5.59528 -37.0238 32.1736 -0.286224 12.1088 12.4047 3.61708 47.2602 80.376 0.516834 -15.8765 -4.57106 53.5528 40.1339 68.0122 18.4439 18.4811 6.40941 12.1446 18.4242 13.903 -1.01001 14.4491 20.6595 18.6383 -7.14011 19.5881 23.0898 15.376 -9.32636 16.104 33.0493 12.1869 0.55554 -0.556248 -0.00539329 0.0240216 -0.579536 0.556279 0 0.566945 -0.556246 -0.00550402 8.45236e-007 -0.56692 0.556279 0 
-0.103086 -0.0600804 0.0482155 -3.47878e-013 5.11669e-008 -5.1093e-006 0 -0 0 0 -0 0 0 -0 0 -0.712671 0.2956 -1.36657e-011 1.58154 -22.2494 -17.3681 -17.1442 -33.6984 -42.9892 1.05648 37.7052 9.24817 -81.4891 -63.9086 63.7976 -3.55423 0.969559 4.21302 0.435734 2.69382 -1.55982 2.97755 1.85873 3.2053 0.152922 3.8701 2.94838 -4.97304 2.28662 10.8703 5.59528 -37.0238 32.1736 -0.271694 11.6904 13.6432 3.68896 48.1966 81.0767 0.490597 -15.0706 -4.33902 52.6091 39.4011 68.3559 18.9151 19.0834 6.81485 12.5116 19.0648 14.2494 -0.948969 14.9318 21.382 19.2116 -7.23026 20.26 23.6407 15.8829 -9.23598 16.7465 33.1764 13.2646 0.568982 -0.548751 -0.00544935 0.0240216 -0.592977 0.548783 0 0.580387 -0.54875 -0.00555859 8.6658e-007 -0.580361 0.548783 0 
-0.103207 -0.0600814 0.0484277 1.38617e-012 5.23655e-008 -5.10929e-006 0 -0 0 0 -0 0 0 -0 0 -0.712689 0.295949 -1.39292e-011 1.58154 -22.2494 -17.3681 -17.1442 -33.6984 -42.9892 1.05648 37.7052 9.24817 -81.4891 -63.9086 63.7976 -3.55423 0.969559 4.21302 0.435734 2.69382 -1.55982 2.97755 1.85873 3.2053 0.152922 3.8701 2.94838 -4.97304 2.28662 10.8703 5.59528 -37.0238 32.1736 -0.257114 11.2707 14.8638 3.80825 49.1463 81.7143 0.464269 -14.2618 -4.10616 51.6653 38.6683 68.6997 19.3863 19.6857 7.22029 12.8786 19.7055 14.5959 -0.887928 15.4145 22.1045 19.7849 -7.32041 20.9319 24.1916 16.3898 -9.1456 17.389 33.3035 14.3424 0.582348 -0.541122 -0.00549984 0.0240216 -0.606343 0.541155 0 0.593753 -0.541121 -0.00560755 8.36698e-007 -0.593727 0.541155 0 
-0.103331 -0.0600825 0.0486384 2.19958e-013 5.35564e-008 -5.10927e-006 0 -0 0 0 -0 0 0 -0 0 -0.712707 0.296304 -1.41614e-011 1.58154 -22.2494 -17.3681 -17.1442 -33.6984 -42.9892 1.05648 37.7052 9.24817 -81.4891 -63.9086 63.7976 -3.55423 0.969559 4.21302 0.435734 2.69382 -1.55982 2.97755 1.85873 3.2053 0.152922 3.8701 2.94838 -4.97304 2.28662 10.8703 5.59528 -37.0238 32.1736 -0.242501 10.8502 16.0628 3.97347 50.1078 82.2882 0.437883 -13.4513 -3.87279 50.7216 37.9355 69.0434 19.8575 20.288 7.62574 13.2455 20.3461 14.9424 -0.826886 15.8971 22.827 20.3582 -7.41056 21.6037 24.7425 16.8967 -9.05522 18.0316 33.4306 15.4201 0.59562 -0.533366 -0.00554457 0.0240216 -0.619616 0.5334 0 0.607025 -0.533365 -0.00565074 8.75118e-007 -0.607 0.5334 0 
-0.103456 -0.0600836 0.0488474 2.18818e-013 5.47381e-008 -5.10925e-006 0 -0 0 0 -0 0 0 -0 0 -0.712725 0.296665 -1.43593e-011 1.58154 -22.2494 -17.3681 -17.1442 -33.6984 -42.9892 1.05648 37.7052 9.24817 -81.4891 -63.9086 63.7976 -3.55423 0.969559 4.21302 0.435734 2.69382 -1.55982 2.97755 1.85873 3.2053 0.152922 3.8701 2.94838 -4.97304 2.28662 10.8703 5.59528 -37.0238 32.1736 -0.227874 10.4295 17.2363 4.18277 51.0794 82.7978 0.411472 -12.64 -3.63921 49.7778 37.2027 69.3871 20.3287 20.8903 8.03118 13.6125 20.9868 15.2889 -0.765845 16.3798 23.5496 20.9316 -7.5007 22.2756 25.2934 17.4036 -8.96484 18.6741 33.5577 16.4978 0.60878 -0.525488 -0.00558339 0.0240216 -0.632776 0.525523 0 0.620185 -0.525487 -0.00568799 1.1712e-006 -0.62016 0.525523 0 
-0.103583 -0.0600847 0.0490543 -7.70211e-014 5.59089e-008 -5.10923e-006 0 -0 0 0 -0 0 0 -0 0 -0.712743 0.297032 -1.45195e-011 1.58154 -22.2494 -17.3681 -17.1442 -33.6984 -42.9892 1.05648 37.7052 9.24817 -81.4891 -63.9086 63.7976 -3.55423 0.969559 4.21302 0.435734 2.69382 -1.55982 2.97755 1.85873 3.2053 0.152922 3.8701 2.94838 -4.97304 2.28662 10.8703 5.59528 -37.0238 32.1736 -0.213255 10.0091 18.3805 4.43389 52.0595 83.243 0.385074 -11.8291 -3.40574 48.8341 36.4699 69.7309 20.7999 21.4926 8.43662 13.9795 21.6275 15.6353 -0.704804 16.8625 24.2721 21.5049 -7.59085 22.9475 25.8443 17.9105 -8.87446 19.3166 33.6849 17.5755 0.621808 -0.517498 -0.00561616 0.0240216 -0.645804 0.517533 0 0.633213 -0.517496 -0.00571918 2.41484e-006 -0.63319 0.517533 0 
-0.103711 -0.0600858 0.0492587 -1.45077e-012 5.70669e-008 -5.10921e-006 0 -0 0 0 -0 0 0 -0 0 -0.712761 0.297404 -1.4638e-011 1.58154 -22.2494 -17.3681 -17.1442 -33.6984 -42.9892 1.05648 37.7052 9.24817 -81.4891 -63.9086 63.7976 -3.55423 0.969559 4.21302 0.435734 2.69382 -1.55982 2.97755 1.85873 3.2053 0.152922 3.8701 2.94838 -4.97304 2.28662 10.8703 5.59528 -37.0238 32.1736 -0.198665 9.58972 19.4917 4.72414 53.0462 83.6238 0.358729 -11.0198 -3.17273 47.8903 35.7371 70.0746 21.2711 22.0949 8.84206 14.3465 22.2681 15.9818 -0.643763 17.3452 24.9946 22.0782 -7.681 23.6193 26.3952 18.4174 -8.78407 19.9591 33.812 18.6533 0.634685 -0.509401 -0.0056428 0.0240216 -0.658682 0.509438 0 0.64609 -0.5094 -0.0057442 2.41484e-006 -0.646067 0.509438 0 
-0.103841 -0.060087 0.0494605 7.96044e-013 5.82105e-008 -5.10919e-006 0 -0 0 0 -0 0 0 -0 0 -0.712779 0.297781 -1.47107e-011 1.58154 -22.2494 -17.3681 -17.1442 -33.6984 -42.9892 1.05648 37.7052 9.24817 -81.4891 -63.9086 63.7976 -3.55423 0.969559 4.21302 0.435734 2.69382 -1.55982 2.97755 1.85873 3.2053 0.152922 3.8701 2.94838 -4.97304 2.28662 10.8703 5.59528 -37.0238 32.1736 -0.184128 9.17195 20.5661 5.05041 54.0378 83.9403 0.33248 -10.2134 -2.94057 46.9466 35.0043 70.4184 21.7423 22.6973 9.2475 14.7134 22.9088 16.3283 -0.582722 17.8279 25.7171 22.6515 -7.77115 24.2912 26.9461 18.9243 -8.69369 20.6017 33.9391 19.731 0.647391 -0.50121 -0.00566322 0.0240216 -0.671387 0.501247 0 0.658796 -0.501209 -0.00576299 1.70755e-006 -0.658773 0.501247 0 
-0.103973 -0.0600881 0.0496592 3.55588e-013 5.93377e-008 -5.10917e-006 0 -0 0 0 -0 0 0 -0 0 -0.712797 0.298163 -1.47328e-011 1.58154 -22.2494 -17.3681 -17.1442 -33.6984 -42.9892 1.05648 37.7052 9.24817 -81.4891 -63.9086 63.7976 -3.55423 0.969559 4.21302 0.435734 2.69382 -1.55982 2.97755 1.85873 3.2053 0.152922 3.8701 2.94838 -4.97304 2.28662 10.8703 5.59528 -37.0238 32.1736 -0.16967 8.75656 21.6005 5.40924 55.0324 84.1934 0.306372 -9.41141 -2.70966 46.0029 34.2715 70.7621 22.2135 23.2996 9.65294 15.0804 23.5495 16.6748 -0.52168 18.3106 26.4397 23.2248 -7.8613 24.9631 27.497 19.4312 -8.60331 21.2442 34.0662 20.8087 0.659903 -0.492936 -0.0056774 0.0240216 -0.683901 0.492974 0 0.671309 -0.492935 -0.00577552 2.41484e-006 -0.671286 0.492973 0 
-0.104105 -0.0600893 0.0498544 1.46679e-012 6.04467e-008 -5.10915e-006 0 -0 0 0 -0 0 0 -0 0 -0.712814 0.298548 -1.4698e-011 1.58154 -22.2494 -17.3681 -17.1442 -33.6984 -42.9892 1.05648 37.7052 9.24817 -81.4891 -63.9086 63.7976 -3.55423 0.969559 4.21302 0.435734 2.69382 -1.55982 2.97755 1.85873 3.2053 0.152922 3.8701 2.94838 -4.97304 2.28662 10.8703 5.59528 -37.0238 32.1736 -0.155319 8.34436 22.5915 5.79674 56.0282 84.3839 0.280458 -8.61536 -2.48047 45.0591 33.5387 71.1059 22.6847 23.9019 10.0584 15.4474 24.1901 17.0212 -0.460639 18.7932 27.1622 23.7981 -7.95145 25.6349 28.0479 19.9381 -8.51293 21.8867 34.1933 21.8864 0.672201 -0.484592 -0.00568532 0.0240216 -0.696199 0.484631 0 0.683606 -0.484591 -0.00578179 1.70755e-006 -0.683583 0.484631 0 
-0.104238 -0.0600905 0.0500459 1.6356e-013 6.15352e-008 -5.10913e-006 0 -0 0 0 -0 0 0 -0 0 -0.712831 0.298938 -1.46004e-011 1.58154 -22.2494 -17.3681 -17.1442 -33.6984 -42.9892 1.05648 37.7052 9.24817 -81.4891 -63.9086 63.7976 -3.55423 0.969559 4.21302 0.435734 2.69382 -1.55982 2.97755 1.85873 3.2053 0.152922 3.8701 2.94838 -4.97304 2.28662 10.8703 5.59528 -37.0238 32.1736 -0.141107 7.93626 23.5361 6.20867 57.0228 84.5132 0.254796 -7.82704 -2.25351 44.1154 32.8059 71.4496 23.1559 24.5042 10.4638 15.8144 24.8308 17.3677 -0.399598 19.2759 27.8847 24.3714 -8.0416 26.3068 28.5989 20.445 -8.42255 22.5292 34.3204 22.9642 0.684259 -0.476197 -0.00568707 0.0240216 -0.708257 0.476236 0 0.695665 -0.476196 -0.00578186 1.70755e-006 -0.695643 0.476236 0 
-0.104372 -0.0600917 0.0502332 4.53535e-013 6.26011e-008 -5.10911e-006 0 -0 0 0 -0 0 0 -0 0 -0.712848 0.299329 -1.44319e-011 1.58154 -22.2494 -17.3681 -17.1442 -33.6984 -42.9892 1.05648 37.7052 9.24817 -81.4891 -63.9086 63.7976 -3.55423 0.969559 4.21302 0.435734 2.69382 -1.55982 2.97755 1.85873 3.2053 0.152922 3.8701 2.94838 -4.97304 2.28662 10.8703 5.59528 -37.0238 32.1736 -0.12707 7.53328 24.4313 6.64046 58.014 84.5832 0.22945 -7.04844 -2.02934 43.1716 32.0731 71.7934 23.6271 25.1065 10.8693 16.1813 25.4715 17.7142 -0.338557 19.7586 28.6072 24.9447 -8.13175 26.9787 29.1498 20.9519 -8.33217 23.1717 34.4476 24.0419 0.696052 -0.46777 -0.00568272 0.0240216 -0.72005 0.46781 0 0.707457 -0.467769 -0.00577583 2.41484e-006 -0.707436 0.46781 0 
